<svg xmlns="http://www.w3.org/2000/svg" width="56" height="56" viewBox="0 0 512 512" fill="none"> <rect width="512" height="512" rx="100" fill="#3D9970"></rect> <path d="M373.585 123.35C373.885 123.35 374.035 123.5 374.035 123.8L375.835 126.5L379.435 129.65C380.335 129.35 380.935 129.65 381.235 130.55L382.135 133.25L391.135 145.85C395.935 150.05 400.285 154.1 404.185 158C404.185 158 404.485 158.3 405.085 158.9C405.385 159.5 405.535 159.95 405.535 160.25C410.935 171.35 414.385 183.35 415.885 196.25C416.185 197.15 416.335 198.2 416.335 199.4C416.635 201.2 416.785 202.85 416.785 204.35C417.085 205.55 416.785 207.05 415.885 208.85C412.585 215.75 408.835 219.8 404.635 221C400.435 221.9 395.185 222.2 388.885 221.9C388.285 221.9 387.985 221.9 387.985 221.9C377.185 221 366.235 220.55 355.135 220.55C344.335 220.25 333.535 219.8 322.735 219.2C319.435 219.2 316.135 219.2 312.835 219.2C309.835 219.2 306.835 219.2 303.835 219.2C303.835 219.2 303.685 219.05 303.385 218.75C300.985 218.45 298.585 218.3 296.185 218.3C294.085 218 292.135 216.95 290.335 215.15C288.235 213.35 287.035 211.55 286.735 209.75C286.435 207.65 285.835 205.4 284.935 203C283.735 200.6 282.385 198.05 280.885 195.35C279.685 192.35 278.185 189.8 276.385 187.7C275.785 187.1 274.885 186.35 273.685 185.45C272.785 184.55 271.435 183.8 269.635 183.2C269.035 183.2 267.985 183.35 266.485 183.65C265.285 183.65 264.535 183.65 264.235 183.65C259.735 183.95 255.235 184.4 250.735 185C246.535 185.3 242.485 186.35 238.585 188.15C237.985 188.45 237.085 188.9 235.885 189.5C234.685 190.1 233.785 190.55 233.185 190.85C233.185 191.45 233.185 192.35 233.185 193.55C233.485 195.95 233.635 197.45 233.635 198.05C233.635 199.55 233.635 201.2 233.635 203C233.635 204.8 233.485 206.45 233.185 207.95C233.185 214.55 233.035 221 232.735 227.3C232.735 233.6 232.735 240.05 232.735 246.65C232.735 252.95 232.735 259.25 232.735 265.55C232.735 271.85 232.885 278.15 233.185 284.45C233.185 285.65 233.185 287.3 233.185 289.4C233.185 294.2 233.335 299.15 233.635 304.25C234.235 309.35 236.035 313.7 239.035 317.3C239.035 317.6 239.185 317.75 239.485 317.75L247.585 323.15C252.085 324.65 256.885 324.95 261.985 324.05C267.385 323.15 271.735 321.5 275.035 319.1C278.035 317 280.135 314.6 281.335 311.9C282.535 308.9 283.885 305.9 285.385 302.9C286.585 300.5 287.485 298.25 288.085 296.15C288.985 293.75 290.485 291.8 292.585 290.3C295.585 287.9 298.885 286.55 302.485 286.25C306.085 285.65 309.685 285.35 313.285 285.35C314.485 285.05 315.535 284.9 316.435 284.9C326.335 284.3 336.235 283.85 346.135 283.55C356.035 283.25 365.935 282.95 375.835 282.65C378.535 282.65 381.235 282.65 383.935 282.65C386.635 282.35 389.335 282.2 392.035 282.2C392.935 282.2 394.135 282.2 395.635 282.2C396.835 281.9 398.035 281.75 399.235 281.75C400.735 281.75 402.235 282.2 403.735 283.1C410.635 286.7 414.535 290.6 415.435 294.8C416.635 298.7 416.935 304.1 416.335 311C415.135 320 412.885 329.3 409.585 338.9C406.585 348.5 402.085 356.75 396.085 363.65C392.185 368.75 387.835 373.4 383.035 377.6C378.235 381.5 373.135 385.25 367.735 388.85C362.035 394.25 355.135 398.75 347.035 402.35C338.935 405.95 330.535 408.95 321.835 411.35C313.435 413.75 305.485 416.15 297.985 418.55C297.985 418.55 297.835 418.55 297.535 418.55C297.235 418.55 297.085 418.55 297.085 418.55C290.785 419.75 284.335 420.5 277.735 420.8C271.435 421.1 265.135 421.25 258.835 421.25L246.235 421.7C245.935 421.7 245.785 421.7 245.785 421.7C237.985 421.4 230.185 420.8 222.385 419.9C214.585 419 206.785 417.8 198.985 416.3C190.285 414.5 181.435 412.4 172.435 410C163.435 407.3 155.185 403.1 147.685 397.4C147.685 397.4 147.685 397.25 147.685 396.95C147.385 396.95 147.235 396.95 147.235 396.95C138.235 387.95 129.685 376.55 121.585 362.75C113.785 348.65 107.635 335.6 103.135 323.6C102.835 323.3 102.685 323.15 102.685 323.15C100.885 316.25 99.8354 309.05 99.5354 301.55C99.5354 294.05 99.5354 286.7 99.5354 279.5C99.5354 276.8 99.5354 274.25 99.5354 271.85C99.8354 269.15 99.8354 266.6 99.5354 264.2C99.5354 263.6 99.5354 263 99.5354 262.4C99.5354 261.5 99.5354 260.75 99.5354 260.15C99.2354 253.55 99.0854 245.6 99.0854 236.3C99.0854 227 99.3854 217.4 99.9854 207.5C100.585 197.6 101.935 188.6 104.035 180.5C106.135 172.1 109.135 165.8 113.035 161.6C119.635 154.1 126.235 146.6 132.835 139.1L140.035 129.65C140.035 129.35 140.035 129.2 140.035 129.2C140.035 128.6 140.335 128.15 140.935 127.85L146.335 124.7C155.635 115.4 164.935 106.25 174.235 97.25C174.235 97.25 174.385 97.1 174.685 96.8C175.285 96.5 175.585 96.35 175.585 96.35C183.685 91.85 192.535 88.7 202.135 86.9C211.735 85.1 221.035 83.45 230.035 81.95C236.335 80.75 243.685 79.85 252.085 79.25C260.485 78.65 268.735 78.65 276.835 79.25C285.235 79.55 292.585 80.75 298.885 82.85C298.885 82.85 299.185 83 299.785 83.3C300.385 83.6 300.685 83.75 300.685 83.75C303.985 85.85 307.285 88.1 310.585 90.5C314.185 92.6 317.785 94.85 321.385 97.25L324.085 97.7C324.085 97.7 324.085 97.85 324.085 98.15C324.385 98.15 324.535 98.15 324.535 98.15L345.685 107.15C345.685 107.15 345.835 107.3 346.135 107.6L358.285 112.55C359.185 112.85 359.485 113.45 359.185 114.35L364.135 117.95L373.585 123.35ZM246.685 90.5H255.685L274.585 89.6C265.585 89 256.285 89.3 246.685 90.5ZM277.285 92.3C277.285 92.3 277.135 92.3 276.835 92.3L257.485 93.2C257.185 93.2 257.035 93.2 257.035 93.2L266.485 116.6L277.285 92.3ZM295.735 95C295.435 94.7 295.285 94.4 295.285 94.1L280.435 92.3L300.685 120.65L295.735 95ZM233.185 92.75C232.885 93.05 232.735 93.2 232.735 93.2L237.235 122L253.885 93.2L233.185 92.75ZM209.785 113.45L229.135 93.2L206.185 98.15L209.785 113.45ZM269.185 117.5L298.435 122L279.085 95L269.185 117.5ZM230.035 95.9L212.485 114.35L234.535 122L230.035 95.9ZM255.235 96.35L240.385 122L263.785 117.5L255.235 96.35ZM303.835 121.55L321.835 112.1L299.335 97.25L303.835 121.55ZM181.885 105.35L196.285 122L203.485 98.15L182.785 104.9C182.485 104.9 182.185 105.05 181.885 105.35ZM199.435 120.2L207.085 114.35L204.835 103.55L199.435 120.2ZM179.635 107.15C179.335 107.15 179.185 107.3 179.185 107.6L176.485 109.85C177.385 108.95 178.285 108.2 179.185 107.6L193.585 122.9L179.635 107.15ZM328.135 114.35L334.435 136.4L339.385 121.55C336.085 119.45 332.335 117.05 328.135 114.35ZM349.285 115.25C352.285 117.35 355.285 119.45 358.285 121.55C361.585 123.65 364.735 125.75 367.735 127.85L369.985 125.6L349.285 115.25ZM304.735 125.15L311.935 139.1L321.835 116.15L304.735 125.15ZM314.635 141.35L332.185 140.45L324.985 117.5L314.635 141.35ZM212.485 118.4L220.585 140.9L233.635 125.6L212.485 118.4ZM193.135 125.6L169.735 119.3L180.985 142.7L193.135 125.6ZM200.785 135.95L205.735 119.75L198.085 125.6L200.785 135.95ZM177.835 144.95L166.135 120.2L146.335 149L177.835 144.95ZM217.435 142.25L209.335 120.65L202.585 140.9L217.435 142.25ZM269.635 121.1L279.985 140.45L298.435 125.6L269.635 121.1ZM239.485 126.05L249.835 141.8L262.885 121.55L239.485 126.05ZM253.435 143.15L276.835 141.35L266.485 122.45L253.435 143.15ZM349.735 128.3C347.335 126.8 344.935 125.15 342.535 123.35L336.685 140.9L354.235 143.15L349.735 128.3ZM284.485 141.35H309.235L302.035 126.95L284.485 141.35ZM246.685 143.6L236.785 127.85L223.735 142.7L246.685 143.6ZM198.085 141.35L195.385 128.75L184.585 143.6L198.085 141.35ZM354.235 131.45L357.385 141.35L361.435 136.4C359.035 134.9 356.635 133.25 354.235 131.45ZM151.735 134.6C149.335 137.3 146.785 140.15 144.085 143.15V145.85L151.735 134.6ZM364.135 138.65L360.985 143.15L369.085 142.25C367.585 141.05 365.935 139.85 364.135 138.65ZM313.285 144.95L320.035 177.35L333.085 143.15L313.285 144.95ZM382.135 143.15L372.235 144.5C375.835 147.5 379.285 150.35 382.585 153.05L382.135 143.15ZM336.235 143.6L345.235 161.6L355.135 146.3L336.235 143.6ZM193.585 175.1L198.535 144.05L181.885 147.2L193.585 175.1ZM281.335 144.05L298.885 170.15L310.135 144.05H281.335ZM239.935 162.05L248.035 146.3L222.385 145.4L239.935 162.05ZM217.885 171.95L200.785 146.75L196.735 178.25L201.235 147.65L217.885 171.95ZM334.435 146.75L323.185 176L342.985 162.95L334.435 146.75ZM160.285 174.65L178.735 147.65L144.535 152.15L160.285 174.65ZM347.935 162.05L378.085 169.25L357.385 148.1L347.935 162.05ZM242.635 162.05L271.435 167.45L250.285 148.1L242.635 162.05ZM295.285 169.7L280.885 148.55L279.085 168.35L295.285 169.7ZM221.035 169.7L236.785 162.95L221.935 148.55L221.035 169.7ZM311.485 149L301.135 171.05L317.335 177.35L311.485 149ZM162.985 175.1L191.785 177.8L180.085 149.9L162.985 175.1ZM141.385 152.15C141.385 152.15 141.235 152.15 140.935 152.15L135.985 151.7C134.785 153.2 133.585 154.55 132.385 155.75L141.385 163.85V152.15ZM385.285 155.3L385.735 170.15L397.885 168.8C397.285 167.6 396.685 166.4 396.085 165.2C392.785 161.9 389.185 158.6 385.285 155.3ZM144.085 164.75L153.535 170.6L144.535 156.65L144.085 164.75ZM130.585 158C128.485 160.1 126.535 162.35 124.735 164.75L137.785 163.85L130.585 158ZM348.385 166.1L359.635 188.15L379.885 173.3L348.385 166.1ZM270.535 170.6L244.435 166.1L251.185 173.75C253.285 173.45 255.385 173.3 257.485 173.3C259.585 173 261.685 172.85 263.785 172.85C264.085 172.85 264.235 172.85 264.235 172.85L270.535 170.6ZM232.285 179.15C232.885 178.85 233.335 178.7 233.635 178.7L237.235 166.55L222.835 172.85L232.285 179.15ZM338.935 202.1L342.985 167L322.285 180.95L338.935 202.1ZM247.135 174.65L240.835 167L237.685 176.9C240.685 176 243.835 175.25 247.135 174.65ZM121.585 168.35C121.585 168.35 121.435 168.5 121.135 168.8C120.535 169.4 119.935 170.15 119.335 171.05L122.035 186.8L138.235 167.45L121.585 168.35ZM147.235 191.3L141.385 169.25L124.285 189.5L147.235 191.3ZM356.935 190.4L346.135 169.7L342.535 202.55L356.935 190.4ZM385.735 174.2L383.935 187.7L398.785 171.95L385.735 174.2ZM302.935 201.65L316.885 181.4L300.685 174.65L302.935 201.65ZM222.835 187.25C223.135 186.65 223.435 185.9 223.735 185C224.635 183.5 226.135 182.15 228.235 180.95L220.135 175.1L212.935 193.55L222.835 187.25ZM216.085 175.1L197.635 180.95L208.885 194L216.085 175.1ZM299.335 202.1L297.535 175.1L286.285 183.2C287.785 185 288.985 186.95 289.885 189.05C291.085 190.85 292.135 192.8 293.035 194.9L299.335 202.1ZM404.185 189.5C403.285 184.7 402.085 180.05 400.585 175.55L386.185 190.4L404.185 189.5ZM284.935 180.95C284.635 180.65 284.335 180.5 284.035 180.5C283.435 179.6 282.685 178.85 281.785 178.25C281.185 177.35 280.585 176.6 279.985 176L281.785 182.75C281.785 182.75 281.935 182.75 282.235 182.75L284.935 180.95ZM379.885 190.85L381.685 176.45L364.135 189.5L379.885 190.85ZM118.435 189.5L116.635 176.9C115.435 180.5 114.385 185 113.485 190.4L118.435 189.5ZM191.335 181.4L162.985 178.7L176.935 203.45L191.335 181.4ZM172.435 203L159.835 180.05L152.185 192.65L172.435 203ZM206.185 196.7L194.485 183.2L180.985 203.9L206.185 196.7ZM336.685 204.8L319.585 183.65L305.185 205.25L336.685 204.8ZM222.385 190.85L211.135 198.05C211.135 198.35 211.135 198.5 211.135 198.5C210.835 198.5 210.685 198.65 210.685 198.95L217.885 225.05L222.385 212.9C222.385 211.4 222.385 209.6 222.385 207.5C222.685 206 222.835 204.5 222.835 203C222.835 201.2 222.835 199.4 222.835 197.6C222.835 196.7 222.835 195.35 222.835 193.55C222.535 192.35 222.385 191.45 222.385 190.85ZM148.135 194.45C147.835 194.45 147.685 194.45 147.685 194.45L122.485 191.75L139.585 221L148.135 194.45ZM110.785 218.3L119.335 192.2L113.035 193.1C112.435 197 111.985 201.2 111.685 205.7C111.385 209.9 111.085 214.1 110.785 218.3ZM405.085 197.15C405.085 195.35 404.935 193.7 404.635 192.2L383.485 193.55L397.885 211.55C399.085 211.25 399.985 210.95 400.585 210.65L405.085 197.15ZM365.485 209.75L358.735 194.45L348.385 209.3C351.085 209.3 353.785 209.45 356.485 209.75C359.485 209.75 362.485 209.75 365.485 209.75ZM121.135 195.35L110.335 228.2C110.335 228.8 110.335 229.25 110.335 229.55L137.335 222.35L121.135 195.35ZM174.685 207.05L151.735 195.8L166.585 221.45L174.685 207.05ZM394.285 211.55L382.135 195.8L374.935 210.2C379.735 210.5 384.235 210.8 388.435 211.1C389.635 211.1 390.985 211.1 392.485 211.1C393.385 211.4 393.985 211.55 394.285 211.55ZM149.935 198.05L142.285 221.45H163.435L149.935 198.05ZM177.835 208.85L180.085 227.3L206.185 199.4L177.835 208.85ZM183.685 227.3L215.635 226.4L208.435 201.2L183.685 227.3ZM299.785 207.5C299.785 207.5 299.785 207.05 299.785 206.15L295.735 201.65C295.735 202.85 295.885 204.05 296.185 205.25C296.485 206.15 296.935 206.75 297.535 207.05C298.135 207.65 298.885 207.8 299.785 207.5ZM406.435 202.55L405.085 206.15C405.385 205.55 405.835 204.8 406.435 203.9C406.435 203.6 406.435 203.15 406.435 202.55ZM333.535 208.85L336.235 207.5L307.435 208.4C309.835 208.4 312.385 208.4 315.085 208.4C317.785 208.4 320.335 208.4 322.735 208.4C326.035 208.7 329.635 208.85 333.535 208.85ZM345.235 209.3C344.335 209.3 343.135 209.3 341.635 209.3L342.085 213.35L345.235 209.3ZM371.785 209.75C370.585 209.75 369.385 209.75 368.185 209.75L369.985 213.35L371.785 209.75ZM175.585 212.45L169.285 222.35L177.385 225.95L175.585 212.45ZM141.835 225.05L140.485 249.35L162.535 225.05H141.835ZM117.085 252.5L135.535 226.4L110.335 233.15C110.335 233.75 110.335 234.5 110.335 235.4L117.085 252.5ZM176.485 253.85L166.135 226.4L142.285 252.5L176.485 253.85ZM169.735 226.85L177.385 246.65L177.835 230.45L169.735 226.85ZM136.435 252.5L137.785 229.55L120.235 253.85L136.435 252.5ZM184.135 230.9L208.885 253.85L215.635 230L184.135 230.9ZM220.135 233.15L221.485 243.05L221.935 239.45C221.935 238.55 221.785 237.65 221.485 236.75C221.485 235.85 221.035 234.65 220.135 233.15ZM180.985 253.85L204.835 255.2L181.435 233.15L180.985 253.85ZM216.985 237.65L212.035 255.65L219.235 256.55L216.985 237.65ZM113.485 252.95L110.335 244.85C110.335 246.95 110.335 249.2 110.335 251.6L113.485 252.95ZM222.835 254.75L223.285 257.9V251.15L222.835 254.75ZM110.335 270.5L115.285 257.45C115.285 257.15 115.135 256.85 114.835 256.55L110.335 254.75C110.335 257.75 110.335 260.75 110.335 263.75C110.635 265.85 110.635 268.1 110.335 270.5ZM163.435 280.4L176.485 256.55L140.485 255.2L163.435 280.4ZM136.885 255.65C136.885 255.65 136.885 255.5 136.885 255.2L118.435 257L135.085 275.9L136.885 255.65ZM137.335 276.8L159.385 279.95L139.585 258.35L137.335 276.8ZM178.735 258.35L166.585 282.2L179.185 259.7L193.135 285.8L178.735 258.35ZM210.685 258.8L212.485 278.6L219.685 259.25L210.685 258.8ZM110.335 279.95L131.935 276.8L117.085 259.7L110.335 278.6C110.335 278.9 110.335 279.05 110.335 279.05C110.335 279.35 110.335 279.65 110.335 279.95ZM208.435 263.3L198.085 284.45L210.235 281.3L208.435 263.3ZM216.535 276.35L221.935 270.95C221.935 270.65 221.935 270.5 221.935 270.5L221.035 265.1L216.535 276.35ZM221.935 275.9L214.285 283.1L222.385 302V297.05C222.385 295.55 222.385 294.2 222.385 293C222.385 291.5 222.385 290 222.385 288.5C222.385 287 222.385 285.8 222.385 284.9C222.385 283.4 222.235 281.9 221.935 280.4C221.935 278.9 221.935 277.4 221.935 275.9ZM160.735 284L138.235 280.4L145.435 298.85L160.735 284ZM131.935 280.4L110.335 283.55L120.685 299.75L131.935 280.4ZM142.285 300.2L135.085 282.2L123.835 301.55L142.285 300.2ZM167.485 308.75L190.435 288.5L166.135 284.9L167.485 308.75ZM164.335 309.65L162.985 286.7L148.135 301.55L164.335 309.65ZM220.585 306.5L212.035 287.15L207.085 298.85L220.585 306.5ZM201.685 298.85L194.485 289.85L173.785 308.3L201.685 298.85ZM117.985 302.9L110.335 290.3C110.335 293 110.335 295.85 110.335 298.85C110.635 301.85 110.785 304.7 110.785 307.4L117.985 302.9ZM320.485 295.7C324.385 295.4 328.435 295.1 332.635 294.8L324.535 291.2L320.485 295.7ZM373.585 293.45L384.385 303.35L394.285 293C393.385 293 392.785 293 392.485 293C389.785 293 386.935 293.15 383.935 293.45C381.235 293.45 378.535 293.45 375.835 293.45C375.235 293.45 374.485 293.45 373.585 293.45ZM399.235 293L390.235 302.9L405.985 298.4C405.085 296.6 402.835 294.8 399.235 293ZM363.685 297.95L360.085 293.9C357.385 293.9 354.985 294.05 352.885 294.35L347.485 297.05L363.685 297.95ZM338.035 294.8L340.735 296.15L344.335 294.35C342.235 294.35 340.135 294.5 338.035 294.8ZM303.835 296.6L310.135 302.9L316.885 295.7C315.985 295.7 314.785 295.7 313.285 295.7C311.785 295.7 310.135 295.85 308.335 296.15C306.835 296.15 305.335 296.3 303.835 296.6ZM306.985 304.7L300.235 297.95C299.935 298.25 299.785 298.4 299.785 298.4C298.585 299.6 297.685 301.1 297.085 302.9C296.485 304.7 295.735 306.35 294.835 307.85C294.835 307.85 294.835 308 294.835 308.3L306.985 304.7ZM369.085 298.4C369.085 298.7 369.085 298.85 369.085 298.85C369.385 299.15 369.535 299.3 369.535 299.3L378.985 302L369.085 298.4ZM342.985 333.95L365.935 300.65H341.635L342.985 333.95ZM328.135 328.55L338.935 300.65L312.385 306.95L328.135 328.55ZM203.485 301.1L168.385 313.25L194.485 329.45L203.485 301.1ZM385.735 307.4L396.535 334.4L405.985 308.75C405.985 308.15 405.985 307.4 405.985 306.5C406.285 304.1 406.435 302.3 406.435 301.1L385.735 307.4ZM222.385 310.55L206.635 302L219.685 330.35L222.385 310.55ZM383.035 307.4L369.535 302.45L378.985 331.25L383.035 307.4ZM132.385 338.45L143.635 302.9L122.035 304.7L132.385 338.45ZM367.285 303.8L345.685 334.85L377.185 333.05L367.285 303.8ZM159.385 329.9L164.785 314.15C164.485 313.85 164.335 313.4 164.335 312.8L146.785 303.8L159.385 329.9ZM205.285 304.7L197.185 329.45L217.435 331.25L205.285 304.7ZM113.935 321.8L119.335 305.6L111.235 310.1C111.835 313.7 112.585 317 113.485 320C113.485 320.6 113.635 321.2 113.935 321.8ZM145.435 306.95L135.085 338.9L156.685 331.25L145.435 306.95ZM293.935 331.25L308.335 306.95L293.035 311.45C292.435 312.65 291.835 313.85 291.235 315.05C290.935 316.25 290.485 317.45 289.885 318.65L293.935 331.25ZM330.835 329.45L340.285 333.95L339.385 307.4L330.835 329.45ZM296.635 331.25L325.435 329L310.135 308.75L296.635 331.25ZM115.735 325.85C116.035 326.75 116.335 327.65 116.635 328.55L129.235 337.1L120.685 309.65L115.735 325.85ZM381.685 333.5L393.835 334.85L385.285 312.8L381.685 333.5ZM167.035 315.5L162.085 330.35L189.085 329.45L167.035 315.5ZM221.935 332.6L230.485 336.65L224.635 318.2L221.935 332.6ZM281.785 327.65L290.785 330.8L287.635 321.35C286.135 323.75 284.185 325.85 281.785 327.65ZM228.685 321.8L234.985 338L240.835 332.15C236.635 330.05 233.185 327.35 230.485 324.05C229.885 323.45 229.285 322.7 228.685 321.8ZM401.035 330.35C401.635 328.85 402.235 327.2 402.835 325.4L401.035 330.35ZM277.735 330.35C276.535 330.95 275.185 331.55 273.685 332.15L276.835 349.7L290.335 334.4L277.735 330.35ZM295.735 335.3L306.085 365L325.435 332.6L295.735 335.3ZM180.985 364.55L192.235 333.05L162.535 333.95L180.985 364.55ZM339.835 337.55L330.835 333.5L332.635 351.95L339.835 337.55ZM261.535 360.5L274.135 352.85L270.085 333.5L261.535 360.5ZM241.735 335.3L245.335 333.95C245.035 333.65 244.585 333.65 243.985 333.95C243.685 333.95 242.935 334.4 241.735 335.3ZM236.785 340.7L257.485 361.4L266.035 334.4C261.235 335.3 256.585 335.45 252.085 334.85L236.785 340.7ZM125.635 347L129.685 342.05L119.785 334.85C121.585 339.05 123.535 343.1 125.635 347ZM148.135 349.25L155.785 335.3L136.435 342.05L148.135 349.25ZM176.485 364.1L159.385 335.75L150.835 351.05L176.485 364.1ZM329.935 357.35L327.235 335.75L310.135 365.45L329.935 357.35ZM204.835 359.6L194.935 336.2L184.585 365.9L204.835 359.6ZM346.585 338.45L363.685 353.75L375.835 336.65L346.585 338.45ZM223.285 337.1L228.685 355.55L231.385 341.15L223.285 337.1ZM302.485 365.9L292.585 337.1L278.635 353.3L302.485 365.9ZM394.735 338.45L383.935 337.1L393.385 348.8C393.685 348.5 393.835 348.2 393.835 347.9L394.735 338.45ZM226.435 360.95L219.685 338.45L209.785 359.15L226.435 360.95ZM359.635 355.1L342.535 339.8L334.885 356.45L359.635 355.1ZM234.535 343.85L231.385 361.4L253.885 362.75L234.535 343.85ZM142.735 350.6L132.835 343.85L127.435 350.6C127.735 350.9 127.885 351.05 127.885 351.05L142.735 350.6ZM390.685 353.3C390.685 353 390.835 352.7 391.135 352.4L365.935 355.55L390.685 353.3ZM140.035 370.85L146.785 352.85L129.235 353.75C132.835 360.05 136.435 365.75 140.035 370.85ZM179.185 368.6L150.835 354.2L164.785 380.3L179.185 368.6ZM266.935 384.35L274.585 355.55L260.185 365C260.185 365.3 260.035 365.6 259.735 365.9L266.935 384.35ZM303.835 369.5L278.635 356L297.985 385.25L304.285 370.4C304.285 370.4 304.135 370.1 303.835 369.5ZM388.435 356L365.485 358.25L369.985 374C373.285 371.3 376.435 368.6 379.435 365.9C382.435 363.2 385.285 360.2 387.985 356.9C387.985 356.6 388.135 356.3 388.435 356ZM141.835 373.55C141.835 373.55 141.835 373.7 141.835 374L160.285 379.4L148.585 356.45L141.835 373.55ZM362.335 357.35L333.535 359.6L350.185 388.85C350.485 388.55 350.785 388.4 351.085 388.4L362.335 357.35ZM276.835 358.25L269.185 385.7L294.835 385.25L276.835 358.25ZM330.385 359.6L307.435 369.95L327.235 392.45L330.385 359.6ZM191.785 381.65L204.835 362.3L183.235 369.05C183.235 369.35 183.235 369.5 183.235 369.5L191.785 381.65ZM363.685 362.3L354.685 385.7C357.085 384.2 359.035 382.55 360.535 380.75C360.535 380.75 360.685 380.6 360.985 380.3C360.985 380.3 361.135 380.3 361.435 380.3C363.535 378.8 365.635 377.3 367.735 375.8L363.685 362.3ZM227.335 364.1L207.985 362.3L207.085 393.35L227.335 364.1ZM333.085 364.1L329.935 392.45L347.485 390.2C347.785 390.2 347.935 390.2 347.935 390.2L333.085 364.1ZM231.385 364.1L248.485 379.85C248.485 379.85 248.635 379.85 248.935 379.85L256.585 365.45L231.385 364.1ZM245.335 380.75L229.585 365.9L210.685 392.9L245.335 380.75ZM194.035 383L204.385 392.45L205.285 366.8L194.035 383ZM251.635 380.75L263.785 384.8L257.935 369.05L251.635 380.75ZM188.185 381.65L180.985 371.3L168.835 380.75L188.185 381.65ZM306.085 372.65L300.685 385.7L322.735 391.55L306.085 372.65ZM153.985 385.25C153.685 384.95 153.535 385.1 153.535 385.7L146.335 379.85C145.735 378.65 144.685 377.75 143.185 377.15L146.335 379.85C147.535 381.35 148.735 382.7 149.935 383.9L152.635 386.15C152.635 386.15 152.785 386 153.085 385.7C153.085 385.7 153.385 385.55 153.985 385.25ZM263.785 388.4L250.735 384.35L251.185 402.35L263.785 388.4ZM175.585 396.5L163.435 384.35L157.585 387.05L175.585 396.5ZM206.635 406.85L192.235 387.5L187.735 401.9L200.785 405.5C200.785 405.5 200.935 405.65 201.235 405.95C203.035 406.25 204.835 406.55 206.635 406.85ZM175.585 399.2L153.985 388.4C154.285 388.7 154.585 388.85 154.885 388.85C157.885 391.25 161.185 393.35 164.785 395.15C168.385 396.65 171.985 398 175.585 399.2ZM295.285 388.85L270.535 389.3L285.385 409.55C285.385 409.55 285.535 409.55 285.835 409.55L295.285 388.85ZM323.635 395.6L300.685 389.75L304.735 405.05C305.935 404.75 307.135 404.45 308.335 404.15C309.535 403.85 310.735 403.55 311.935 403.25L323.635 395.6ZM281.335 409.55L266.935 390.2L252.985 405.5L278.635 410C279.535 410 280.435 409.85 281.335 409.55ZM247.585 405.95L247.135 392.45L241.735 409.55L247.585 405.95ZM301.135 405.95L297.535 392.45L289.885 408.65C291.685 408.65 293.335 408.5 294.835 408.2C296.635 407.6 298.735 406.85 301.135 405.95ZM330.835 397.4C332.635 396.8 334.285 396.2 335.785 395.6L330.835 397.4ZM327.235 397.4L323.635 399.65C325.435 399.05 326.635 398.3 327.235 397.4ZM226.435 409.55L209.785 400.55L212.485 407.75C216.985 408.35 221.635 408.95 226.435 409.55ZM249.385 408.65L246.235 410.9H253.885L249.385 408.65ZM265.585 410.45L257.035 409.1L261.085 410.45C262.885 410.45 264.385 410.45 265.585 410.45Z" fill="white"></path> </svg>